<?xml version="1.0" encoding="UTF-8" standalone="no"?>
<!-- Created with Inkscape (http://www.inkscape.org/) -->

<svg
   xmlns:dc="http://purl.org/dc/elements/1.1/"
   xmlns:cc="http://creativecommons.org/ns#"
   xmlns:rdf="http://www.w3.org/1999/02/22-rdf-syntax-ns#"
   xmlns:svg="http://www.w3.org/2000/svg"
   xmlns="http://www.w3.org/2000/svg"
   xmlns:sodipodi="http://sodipodi.sourceforge.net/DTD/sodipodi-0.dtd"
   xmlns:inkscape="http://www.inkscape.org/namespaces/inkscape"
   width="337.1333mm"
   height="275.1452mm"
   viewBox="0 0 337.1333 275.1452"
   version="1.1"
   id="svg8"
   inkscape:version="0.92.2 (5c3e80d, 2017-08-06)"
   sodipodi:docname="fridolean-family-paths.svg">
  <defs
     id="defs2" />
  <sodipodi:namedview
     id="base"
     pagecolor="#ffffff"
     bordercolor="#666666"
     borderopacity="1.0"
     inkscape:pageopacity="0.0"
     inkscape:pageshadow="2"
     inkscape:zoom="1"
     inkscape:cx="376.86286"
     inkscape:cy="311.71167"
     inkscape:document-units="mm"
     inkscape:current-layer="layer1"
     showgrid="false"
     showguides="true"
     inkscape:guide-bbox="true"
     inkscape:window-width="2560"
     inkscape:window-height="1566"
     inkscape:window-x="0"
     inkscape:window-y="18"
     inkscape:window-maximized="1"
     inkscape:snap-global="false" />
  <metadata
     id="metadata5">
    <rdf:RDF>
      <cc:Work
         rdf:about="">
        <dc:format>image/svg+xml</dc:format>
        <dc:type
           rdf:resource="http://purl.org/dc/dcmitype/StillImage" />
        <dc:title></dc:title>
      </cc:Work>
    </rdf:RDF>
  </metadata>
  <g
     inkscape:label="Layer 1"
     inkscape:groupmode="layer"
     id="layer1"
     transform="translate(229.48727,51.719086)">
    <rect
       style="fill:#f3f3f3;fill-opacity:0.98431373;stroke:none;stroke-width:0.66407192;stroke-linejoin:round"
       id="rect958"
       width="337.1333"
       height="275.1452"
       x="-229.29683"
       y="-51.386734" />
    <g
       id="g2061">
      <g
         aria-label="Frido"
         transform="matrix(0.927056,0,0,1.0786835,58.545872,53.194005)"
         style="font-style:normal;font-variant:normal;font-weight:normal;font-stretch:normal;font-size:18.67182732px;line-height:1.25;font-family:'Montserrat Alternates';-inkscape-font-specification:'Montserrat Alternates';text-align:end;letter-spacing:0px;word-spacing:0px;text-anchor:end;fill:#000000;fill-opacity:0.78431373;stroke:none;stroke-width:0.43859205"
         id="text4527-7">
        <path
           d="m -158.59187,69.518335 c 1.02695,0 2.07257,0.224062 2.9128,0.802888 l 0.76555,-1.979213 c -0.97094,-0.634843 -2.31531,-0.952264 -3.79038,-0.952264 -3.56632,0 -5.71358,1.904527 -5.71358,5.078737 v 8.178261 h 2.42733 v -5.00405 h 5.69491 v -2.053901 h -5.69491 v -1.12031 c 0,-1.923198 1.13899,-2.950148 3.39828,-2.950148 z"
           style="font-style:normal;font-variant:normal;font-weight:600;font-stretch:normal;font-size:18.67182732px;font-family:'Montserrat Alternates';-inkscape-font-specification:'Montserrat Alternates Semi-Bold';text-align:end;text-anchor:end;fill:#000000;fill-opacity:0.78431373;stroke-width:0.43859205"
           id="path1886"
           inkscape:connector-curvature="0" />
        <path
           d="m -151.29411,72.132391 v -1.456403 h -2.22194 v 9.970756 h 2.33397 V 75.81074 c 0,-2.035229 1.12031,-3.080851 2.89414,-3.080851 0.16804,0 0.33609,0.01867 0.54148,0.05602 v -2.221947 c -1.66179,0 -2.87546,0.522811 -3.54765,1.568434 z"
           style="font-style:normal;font-variant:normal;font-weight:600;font-stretch:normal;font-size:18.67182732px;font-family:'Montserrat Alternates';-inkscape-font-specification:'Montserrat Alternates Semi-Bold';text-align:end;text-anchor:end;fill:#000000;fill-opacity:0.78431373;stroke-width:0.43859205"
           id="path1888"
           inkscape:connector-curvature="0" />
        <path
           d="m -144.60843,69.032867 c 0.87758,0 1.49375,-0.634842 1.49375,-1.456402 0,-0.765545 -0.63484,-1.344372 -1.49375,-1.344372 -0.8589,0 -1.49374,0.61617 -1.49374,1.400387 0,0.784217 0.63484,1.400387 1.49374,1.400387 z m -1.17632,11.613877 h 2.33398 v -9.970756 h -2.33398 z"
           style="font-style:normal;font-variant:normal;font-weight:600;font-stretch:normal;font-size:18.67182732px;font-family:'Montserrat Alternates';-inkscape-font-specification:'Montserrat Alternates Semi-Bold';text-align:end;text-anchor:end;fill:#000000;fill-opacity:0.78431373;stroke-width:0.43859205"
           id="path1890"
           inkscape:connector-curvature="0" />
        <path
           d="m -132.95604,66.792248 v 5.116081 c -0.78421,-0.91492 -1.9232,-1.344372 -3.21155,-1.344372 -2.89414,0 -5.0414,1.997886 -5.0414,5.097409 0,3.099523 2.14726,5.116081 5.0414,5.116081 1.36304,0 2.52069,-0.466796 3.30491,-1.419059 v 1.288356 h 2.24062 V 66.792248 Z m -2.93147,11.987313 c -1.68047,0 -2.96883,-1.213669 -2.96883,-3.118195 0,-1.904527 1.28836,-3.118195 2.96883,-3.118195 1.68046,0 2.96882,1.213668 2.96882,3.118195 0,1.904526 -1.28836,3.118195 -2.96882,3.118195 z"
           style="font-style:normal;font-variant:normal;font-weight:600;font-stretch:normal;font-size:18.67182732px;font-family:'Montserrat Alternates';-inkscape-font-specification:'Montserrat Alternates Semi-Bold';text-align:end;text-anchor:end;fill:#000000;fill-opacity:0.78431373;stroke-width:0.43859205"
           id="path1892"
           inkscape:connector-curvature="0" />
        <path
           d="m -123.0693,80.777447 c 3.09952,0 5.32147,-2.128589 5.32147,-5.116081 0,-2.987492 -2.22195,-5.097409 -5.32147,-5.097409 -3.06218,0 -5.3028,2.109917 -5.3028,5.097409 0,2.987492 2.24062,5.116081 5.3028,5.116081 z m 0,-1.997886 c -1.68047,0 -2.95015,-1.213669 -2.95015,-3.118195 0,-1.904527 1.26968,-3.118195 2.95015,-3.118195 1.69913,0 2.96882,1.213668 2.96882,3.118195 0,1.904526 -1.26969,3.118195 -2.96882,3.118195 z"
           style="font-style:normal;font-variant:normal;font-weight:600;font-stretch:normal;font-size:18.67182732px;font-family:'Montserrat Alternates';-inkscape-font-specification:'Montserrat Alternates Semi-Bold';text-align:end;text-anchor:end;fill:#000000;fill-opacity:0.78431373;stroke-width:0.43859205"
           id="path1894"
           inkscape:connector-curvature="0" />
      </g>
      <g
         aria-label="   lean."
         transform="matrix(0.927056,0,0,1.0786835,58.545872,53.194005)"
         style="font-style:normal;font-variant:normal;font-weight:normal;font-stretch:normal;font-size:18.67182732px;line-height:1.25;font-family:'Montserrat Alternates';-inkscape-font-specification:'Montserrat Alternates';text-align:end;letter-spacing:0px;word-spacing:0px;text-anchor:end;fill:#000000;fill-opacity:0.78431373;stroke:none;stroke-width:0.43859205"
         id="text4527-1-3">
        <path
           d="m -142.62668,96.408428 c 0.37344,0 0.78422,-0.07469 1.12031,-0.205391 l -0.0747,-0.784216 c -0.22406,0.09336 -0.56015,0.186718 -0.93359,0.186718 -1.15765,0 -1.71781,-0.690858 -1.71781,-1.94187 V 82.479244 h -0.93359 V 93.7757 c 0,1.624449 0.87758,2.632728 2.53937,2.632728 z"
           style="font-style:normal;font-variant:normal;font-weight:300;font-stretch:normal;font-size:18.67182732px;font-family:'Montserrat Alternates';-inkscape-font-specification:'Montserrat Alternates Light';text-align:end;text-anchor:end;fill:#000000;fill-opacity:0.78431373;stroke-width:0.43859205"
           id="path1897"
           inkscape:connector-curvature="0" />
        <path
           d="m -135.77295,95.568195 c -1.99789,0 -3.51031,-1.120309 -3.9771,-2.912805 l 8.23427,-1.605777 c -0.1307,-2.595384 -1.97921,-4.537254 -4.57459,-4.537254 -2.76343,0 -4.74265,2.053901 -4.74265,4.948034 0,2.894134 2.09125,4.948035 5.0414,4.948035 1.49374,0 2.81944,-0.541483 3.67835,-1.587106 l -0.54149,-0.61617 c -0.74687,0.914919 -1.86718,1.363043 -3.11819,1.363043 z m -0.31742,-8.234276 c 1.99788,0 3.3796,1.437731 3.641,3.174211 l -7.43138,1.456403 c -0.0187,-0.186719 -0.0374,-0.392109 -0.0374,-0.578827 0,-2.371322 1.58711,-4.051787 3.82773,-4.051787 z"
           style="font-style:normal;font-variant:normal;font-weight:300;font-stretch:normal;font-size:18.67182732px;font-family:'Montserrat Alternates';-inkscape-font-specification:'Montserrat Alternates Light';text-align:end;text-anchor:end;fill:#000000;fill-opacity:0.78431373;stroke-width:0.43859205"
           id="path1899"
           inkscape:connector-curvature="0" />
        <path
           d="m -120.87925,86.587046 v 2.259291 c -0.78422,-1.475074 -2.24062,-2.333978 -3.9771,-2.333978 -2.74476,0 -4.81733,2.016557 -4.81733,4.948034 0,2.912805 2.07257,4.948035 4.81733,4.948035 1.75515,0 3.23022,-0.858905 3.99577,-2.371323 v 2.296635 h 0.91492 v -9.746694 z m -3.92109,8.981149 c -2.24062,0 -3.92108,-1.661792 -3.92108,-4.107802 0,-2.446009 1.68046,-4.107802 3.92108,-4.107802 2.24062,0 3.92109,1.661793 3.92109,4.107802 0,2.44601 -1.68047,4.107802 -3.92109,4.107802 z"
           style="font-style:normal;font-variant:normal;font-weight:300;font-stretch:normal;font-size:18.67182732px;font-family:'Montserrat Alternates';-inkscape-font-specification:'Montserrat Alternates Light';text-align:end;text-anchor:end;fill:#000000;fill-opacity:0.78431373;stroke-width:0.43859205"
           id="path1901"
           inkscape:connector-curvature="0" />
        <path
           d="m -111.23,86.512359 c -1.84851,0 -3.21156,0.82156 -3.86507,2.184604 v -2.109917 h -0.89625 v 9.746694 h 0.93359 v -5.190768 c 0,-2.315306 1.40039,-3.790381 3.69703,-3.790381 1.97921,0 3.15553,1.157654 3.15553,3.360929 v 5.62022 h 0.9336 v -5.694907 c 0,-2.726087 -1.58711,-4.126474 -3.95843,-4.126474 z"
           style="font-style:normal;font-variant:normal;font-weight:300;font-stretch:normal;font-size:18.67182732px;font-family:'Montserrat Alternates';-inkscape-font-specification:'Montserrat Alternates Light';text-align:end;text-anchor:end;fill:#000000;fill-opacity:0.78431373;stroke-width:0.43859205"
           id="path1903"
           inkscape:connector-curvature="0" />
        <path
           d="m -103.52175,96.408428 c 0.42945,0 0.78422,-0.354765 0.78422,-0.802889 0,-0.448124 -0.35477,-0.784217 -0.78422,-0.784217 -0.42945,0 -0.78421,0.336093 -0.78421,0.784217 0,0.448124 0.35476,0.802889 0.78421,0.802889 z"
           style="font-style:normal;font-variant:normal;font-weight:300;font-stretch:normal;font-size:18.67182732px;font-family:'Montserrat Alternates';-inkscape-font-specification:'Montserrat Alternates Light';text-align:end;text-anchor:end;fill:#000000;fill-opacity:0.78431373;stroke-width:0.43859205"
           id="path1905"
           inkscape:connector-curvature="0" />
      </g>
      <path
         style="fill:#c95731;fill-opacity:1;stroke:none;stroke-width:0.01427474;stroke-linejoin:round"
         d="m -74.270405,123.47074 1.372586,3.68645 -3.657571,1.38343 -1.372587,-3.68645 z"
         id="rect4504-3-6-6-0"
         inkscape:connector-curvature="0" />
    </g>
    <text
       xml:space="preserve"
       style="font-style:normal;font-variant:normal;font-weight:normal;font-stretch:normal;font-size:18.67182732px;line-height:1.25;font-family:'Montserrat Alternates';-inkscape-font-specification:'Montserrat Alternates';text-align:end;letter-spacing:0px;word-spacing:0px;text-anchor:end;fill:#000000;fill-opacity:0.78431373;stroke:none;stroke-width:0.43859205"
       x="-17.281614"
       y="113.53162"
       id="text4527-1-3-7"
       transform="scale(0.927056,1.0786835)"><tspan
         sodipodi:role="line"
         x="-17.281614"
         y="130.69276"
         style="font-style:normal;font-variant:normal;font-weight:300;font-stretch:normal;font-size:18.67182732px;font-family:'Montserrat Alternates';-inkscape-font-specification:'Montserrat Alternates Light';text-align:end;text-anchor:end;fill:#000000;fill-opacity:0.78431373;stroke-width:0.43859205"
         id="tspan4529-3-6-3" /></text>
    <g
       id="g2046">
      <g
         transform="translate(141.72679,-0.23352317)"
         id="g1213">
        <g
           id="text4527-7-2"
           style="font-style:normal;font-variant:normal;font-weight:normal;font-stretch:normal;font-size:18.67182732px;line-height:1.25;font-family:'Montserrat Alternates';-inkscape-font-specification:'Montserrat Alternates';text-align:end;letter-spacing:0px;word-spacing:0px;text-anchor:end;fill:#000000;fill-opacity:0.78431373;stroke:none;stroke-width:0.43859205"
           transform="scale(0.927056,1.0786835)"
           aria-label="Fridolean.">
          <path
             id="path1864"
             style="font-style:normal;font-variant:normal;font-weight:600;font-stretch:normal;font-size:18.67182732px;font-family:'Montserrat Alternates';-inkscape-font-specification:'Montserrat Alternates Semi-Bold';text-align:end;text-anchor:end;fill:#000000;fill-opacity:0.78431373;stroke-width:0.43859205"
             d="m -157.39424,127.3632 c 1.02695,0 2.07257,0.22406 2.9128,0.80289 l 0.76555,-1.97922 c -0.97094,-0.63484 -2.31531,-0.95226 -3.79038,-0.95226 -3.56632,0 -5.71358,1.90453 -5.71358,5.07874 v 8.17826 h 2.42734 v -5.00405 h 5.6949 v -2.0539 h -5.6949 v -1.12031 c 0,-1.9232 1.13898,-2.95015 3.39827,-2.95015 z" />
          <path
             id="path1866"
             style="font-style:normal;font-variant:normal;font-weight:600;font-stretch:normal;font-size:18.67182732px;font-family:'Montserrat Alternates';-inkscape-font-specification:'Montserrat Alternates Semi-Bold';text-align:end;text-anchor:end;fill:#000000;fill-opacity:0.78431373;stroke-width:0.43859205"
             d="m -150.09647,129.97725 v -1.4564 h -2.22195 v 9.97076 h 2.33398 v -4.83601 c 0,-2.03522 1.12031,-3.08085 2.89413,-3.08085 0.16805,0 0.33609,0.0187 0.54148,0.056 v -2.22195 c -1.66179,0 -2.87546,0.52281 -3.54764,1.56843 z" />
          <path
             id="path1868"
             style="font-style:normal;font-variant:normal;font-weight:600;font-stretch:normal;font-size:18.67182732px;font-family:'Montserrat Alternates';-inkscape-font-specification:'Montserrat Alternates Semi-Bold';text-align:end;text-anchor:end;fill:#000000;fill-opacity:0.78431373;stroke-width:0.43859205"
             d="m -143.41079,126.87773 c 0.87757,0 1.49374,-0.63484 1.49374,-1.4564 0,-0.76555 -0.63484,-1.34437 -1.49374,-1.34437 -0.85891,0 -1.49375,0.61617 -1.49375,1.40038 0,0.78422 0.63484,1.40039 1.49375,1.40039 z m -1.17633,11.61388 h 2.33398 v -9.97076 h -2.33398 z" />
          <path
             id="path1870"
             style="font-style:normal;font-variant:normal;font-weight:600;font-stretch:normal;font-size:18.67182732px;font-family:'Montserrat Alternates';-inkscape-font-specification:'Montserrat Alternates Semi-Bold';text-align:end;text-anchor:end;fill:#000000;fill-opacity:0.78431373;stroke-width:0.43859205"
             d="m -131.7584,124.63711 v 5.11608 c -0.78422,-0.91492 -1.9232,-1.34437 -3.21156,-1.34437 -2.89413,0 -5.04139,1.99789 -5.04139,5.09741 0,3.09952 2.14726,5.11608 5.04139,5.11608 1.36304,0 2.5207,-0.4668 3.30491,-1.41906 v 1.28836 h 2.24062 v -13.8545 z m -2.93148,11.98731 c -1.68047,0 -2.96882,-1.21366 -2.96882,-3.11819 0,-1.90453 1.28835,-3.1182 2.96882,-3.1182 1.68046,0 2.96882,1.21367 2.96882,3.1182 0,1.90453 -1.28836,3.11819 -2.96882,3.11819 z" />
          <path
             id="path1872"
             style="font-style:normal;font-variant:normal;font-weight:600;font-stretch:normal;font-size:18.67182732px;font-family:'Montserrat Alternates';-inkscape-font-specification:'Montserrat Alternates Semi-Bold';text-align:end;text-anchor:end;fill:#000000;fill-opacity:0.78431373;stroke-width:0.43859205"
             d="m -121.87167,138.62231 c 3.09952,0 5.32147,-2.12859 5.32147,-5.11608 0,-2.98749 -2.22195,-5.09741 -5.32147,-5.09741 -3.06218,0 -5.3028,2.10992 -5.3028,5.09741 0,2.98749 2.24062,5.11608 5.3028,5.11608 z m 0,-1.99789 c -1.68046,0 -2.95015,-1.21366 -2.95015,-3.11819 0,-1.90453 1.26969,-3.1182 2.95015,-3.1182 1.69914,0 2.96882,1.21367 2.96882,3.1182 0,1.90453 -1.26968,3.11819 -2.96882,3.11819 z" />
          <path
             id="path1874"
             style="font-style:normal;font-variant:normal;font-weight:300;font-stretch:normal;font-size:18.67182732px;font-family:'Montserrat Alternates';-inkscape-font-specification:'Montserrat Alternates Light';text-align:end;text-anchor:end;fill:#000000;fill-opacity:0.78431373;stroke-width:0.43859205"
             d="m -111.33084,138.56629 c 0.37344,0 0.78422,-0.0747 1.12031,-0.20539 l -0.0747,-0.78421 c -0.22406,0.0934 -0.56015,0.18672 -0.93359,0.18672 -1.15765,0 -1.71781,-0.69086 -1.71781,-1.94187 v -11.18443 h -0.93359 v 11.29646 c 0,1.62445 0.87758,2.63272 2.53937,2.63272 z" />
          <path
             id="path1876"
             style="font-style:normal;font-variant:normal;font-weight:300;font-stretch:normal;font-size:18.67182732px;font-family:'Montserrat Alternates';-inkscape-font-specification:'Montserrat Alternates Light';text-align:end;text-anchor:end;fill:#000000;fill-opacity:0.78431373;stroke-width:0.43859205"
             d="m -104.47711,137.72606 c -1.99789,0 -3.51031,-1.12031 -3.9771,-2.9128 l 8.23427,-1.60578 c -0.1307,-2.59538 -1.97921,-4.53725 -4.57459,-4.53725 -2.76343,0 -4.74265,2.0539 -4.74265,4.94803 0,2.89413 2.09125,4.94803 5.0414,4.94803 1.49374,0 2.81944,-0.54148 3.67835,-1.5871 l -0.54149,-0.61617 c -0.74687,0.91492 -1.86718,1.36304 -3.11819,1.36304 z m -0.31742,-8.23427 c 1.99788,0 3.3796,1.43773 3.641,3.17421 l -7.43139,1.4564 c -0.0187,-0.18672 -0.0373,-0.39211 -0.0373,-0.57883 0,-2.37132 1.58711,-4.05178 3.82773,-4.05178 z" />
          <path
             id="path1878"
             style="font-style:normal;font-variant:normal;font-weight:300;font-stretch:normal;font-size:18.67182732px;font-family:'Montserrat Alternates';-inkscape-font-specification:'Montserrat Alternates Light';text-align:end;text-anchor:end;fill:#000000;fill-opacity:0.78431373;stroke-width:0.43859205"
             d="m -89.583415,128.74491 v 2.25929 c -0.784217,-1.47507 -2.24062,-2.33397 -3.9771,-2.33397 -2.744758,0 -4.817331,2.01655 -4.817331,4.94803 0,2.91281 2.072573,4.94803 4.817331,4.94803 1.755152,0 3.230227,-0.8589 3.995771,-2.37132 v 2.29664 h 0.91492 v -9.7467 z m -3.921084,8.98115 c -2.240619,0 -3.921084,-1.66179 -3.921084,-4.1078 0,-2.44601 1.680465,-4.1078 3.921084,-4.1078 2.240619,0 3.921084,1.66179 3.921084,4.1078 0,2.44601 -1.680465,4.1078 -3.921084,4.1078 z" />
          <path
             id="path1880"
             style="font-style:normal;font-variant:normal;font-weight:300;font-stretch:normal;font-size:18.67182732px;font-family:'Montserrat Alternates';-inkscape-font-specification:'Montserrat Alternates Light';text-align:end;text-anchor:end;fill:#000000;fill-opacity:0.78431373;stroke-width:0.43859205"
             d="m -79.934163,128.67023 c -1.848511,0 -3.211555,0.82156 -3.865069,2.1846 v -2.10992 h -0.896247 v 9.7467 h 0.933591 v -5.19077 c 0,-2.31531 1.400387,-3.79038 3.697022,-3.79038 1.979213,0 3.155539,1.15765 3.155539,3.36093 v 5.62022 h 0.933591 v -5.69491 c 0,-2.72609 -1.587105,-4.12647 -3.958427,-4.12647 z" />
          <path
             id="path1882"
             style="font-style:normal;font-variant:normal;font-weight:300;font-stretch:normal;font-size:18.67182732px;font-family:'Montserrat Alternates';-inkscape-font-specification:'Montserrat Alternates Light';text-align:end;text-anchor:end;fill:#000000;fill-opacity:0.78431373;stroke-width:0.43859205"
             d="m -72.225906,138.56629 c 0.429452,0 0.784216,-0.35476 0.784216,-0.80288 0,-0.44813 -0.354764,-0.78422 -0.784216,-0.78422 -0.429452,0 -0.784217,0.33609 -0.784217,0.78422 0,0.44812 0.354765,0.80288 0.784217,0.80288 z" />
        </g>
        <path
           id="rect4504-3-6-6-0-6"
           d="m 77.610794,169.96423 h 3.933691 v 3.91046 h -3.933691 z"
           style="fill:#c95731;fill-opacity:1;stroke:none;stroke-width:0.01427484;stroke-linejoin:round"
           transform="matrix(0.34893094,0.93714844,-0.93533033,0.35377559,0,0)" />
      </g>
    </g>
    <g
       id="g2079">
      <rect
         y="136.91362"
         x="-191.38101"
         height="12.158334"
         width="12.158334"
         id="rect851-7"
         style="fill:#358340;fill-opacity:1;stroke:none;stroke-width:0.03733845;stroke-linejoin:round" />
      <rect
         transform="rotate(66.667)"
         y="222.53575"
         x="53.607933"
         height="8.591259"
         width="8.5912161"
         id="rect867-0"
         style="fill:#fce14b;fill-opacity:1;stroke:none;stroke-width:0.04580683;stroke-linejoin:round" />
      <g
         id="text4527-9"
         style="font-style:normal;font-variant:normal;font-weight:normal;font-stretch:normal;font-size:3.22958183px;line-height:1.25;font-family:'Montserrat Alternates';-inkscape-font-specification:'Montserrat Alternates';text-align:end;letter-spacing:0px;word-spacing:0px;text-anchor:end;fill:#000000;fill-opacity:0.78431373;stroke:none;stroke-width:0.07069408"
         transform="scale(0.927056,1.0786835)"
         aria-label="Frido">
        <path
           id="path1917"
           style="font-style:normal;font-variant:normal;font-weight:800;font-stretch:normal;font-size:3.22958183px;font-family:'Montserrat Alternates';-inkscape-font-specification:'Montserrat Alternates Ultra-Bold';text-align:end;text-anchor:end;fill:#000000;fill-opacity:0.78431373;stroke-width:0.07069408"
           d="m -203.81205,130.5602 c 0.13888,0 0.29713,0.0323 0.42954,0.10981 l 0.18731,-0.4909 c -0.1647,-0.0969 -0.40369,-0.14856 -0.66529,-0.14856 -0.69113,0 -1.09483,0.35202 -1.09483,0.96887 v 1.33705 h 0.63946 v -0.7751 h 0.86876 v -0.49412 h -0.86876 v -0.0775 c 0,-0.29067 0.18086,-0.42954 0.50381,-0.42954 z" />
        <path
           id="path1919"
           style="font-style:normal;font-variant:normal;font-weight:800;font-stretch:normal;font-size:3.22958183px;font-family:'Montserrat Alternates';-inkscape-font-specification:'Montserrat Alternates Ultra-Bold';text-align:end;text-anchor:end;fill:#000000;fill-opacity:0.78431373;stroke-width:0.07069408"
           d="m -202.44397,130.79596 v -0.20992 h -0.58455 v 1.75043 h 0.61362 v -0.80416 c 0,-0.30681 0.17117,-0.43277 0.41985,-0.43277 0.0452,0 0.084,0.003 0.13887,0.01 v -0.55226 c -0.25837,0 -0.46183,0.0807 -0.58779,0.23899 z" />
        <path
           id="path1921"
           style="font-style:normal;font-variant:normal;font-weight:800;font-stretch:normal;font-size:3.22958183px;font-family:'Montserrat Alternates';-inkscape-font-specification:'Montserrat Alternates Ultra-Bold';text-align:end;text-anchor:end;fill:#000000;fill-opacity:0.78431373;stroke-width:0.07069408"
           d="m -201.29615,130.39226 c 0.22607,0 0.37463,-0.1421 0.37463,-0.33587 0,-0.18409 -0.14856,-0.3165 -0.37463,-0.3165 -0.22607,0 -0.37463,0.1421 -0.37463,0.32619 0,0.18408 0.14856,0.32618 0.37463,0.32618 z m -0.30681,1.94421 h 0.61362 v -1.75043 h -0.61362 z" />
        <path
           id="path1923"
           style="font-style:normal;font-variant:normal;font-weight:800;font-stretch:normal;font-size:3.22958183px;font-family:'Montserrat Alternates';-inkscape-font-specification:'Montserrat Alternates Ultra-Bold';text-align:end;text-anchor:end;fill:#000000;fill-opacity:0.78431373;stroke-width:0.07069408"
           d="m -199.3471,129.94012 v 0.79771 c -0.11626,-0.12273 -0.28097,-0.18086 -0.48444,-0.18086 -0.47797,0 -0.86229,0.34557 -0.86229,0.90106 0,0.55871 0.38432,0.90751 0.86229,0.90751 0.22607,0 0.39724,-0.0646 0.51351,-0.20347 v 0.1744 h 0.58455 v -2.39635 z m -0.35525,1.93775 c -0.20993,0 -0.36818,-0.15179 -0.36818,-0.41984 0,-0.26483 0.15825,-0.41339 0.36818,-0.41339 0.20669,0 0.36494,0.14856 0.36494,0.41339 0,0.26805 -0.15825,0.41984 -0.36494,0.41984 z" />
        <path
           id="path1925"
           style="font-style:normal;font-variant:normal;font-weight:800;font-stretch:normal;font-size:3.22958183px;font-family:'Montserrat Alternates';-inkscape-font-specification:'Montserrat Alternates Ultra-Bold';text-align:end;text-anchor:end;fill:#000000;fill-opacity:0.78431373;stroke-width:0.07069408"
           d="m -197.46339,132.36554 c 0.57809,0 0.98825,-0.37786 0.98825,-0.90751 0,-0.52643 -0.41016,-0.90106 -0.98825,-0.90106 -0.57164,0 -0.98826,0.37463 -0.98826,0.90106 0,0.52965 0.41662,0.90751 0.98826,0.90751 z m 0,-0.48767 c -0.2067,0 -0.36818,-0.15179 -0.36818,-0.41984 0,-0.26483 0.16148,-0.41339 0.36818,-0.41339 0.20992,0 0.36817,0.14856 0.36817,0.41339 0,0.26805 -0.15825,0.41984 -0.36817,0.41984 z" />
      </g>
      <g
         id="text4527-1-0"
         style="font-style:normal;font-variant:normal;font-weight:normal;font-stretch:normal;font-size:2.99861121px;line-height:1.25;font-family:'Montserrat Alternates';-inkscape-font-specification:'Montserrat Alternates';text-align:end;letter-spacing:0px;word-spacing:0px;text-anchor:end;fill:#000000;fill-opacity:0.78431373;stroke:none;stroke-width:0.06563824"
         transform="scale(0.927056,1.0786835)"
         aria-label="   lean.">
        <path
           id="path1933"
           style="font-style:normal;font-variant:normal;font-weight:600;font-stretch:normal;font-size:2.99861121px;font-family:'Montserrat Alternates';-inkscape-font-specification:'Montserrat Alternates Semi-Bold';text-align:end;text-anchor:end;fill:#000000;fill-opacity:0.78431373;stroke-width:0.06563824"
           d="m -200.98842,134.70399 c 0.075,0 0.15292,-0.012 0.22489,-0.039 l -0.018,-0.29986 c -0.03,0.015 -0.084,0.03 -0.13494,0.03 -0.14993,0 -0.22489,-0.084 -0.22489,-0.23989 v -1.69721 h -0.37483 v 1.7242 c 0,0.33285 0.19491,0.52176 0.52776,0.52176 z" />
        <path
           id="path1935"
           style="font-style:normal;font-variant:normal;font-weight:600;font-stretch:normal;font-size:2.99861121px;font-family:'Montserrat Alternates';-inkscape-font-specification:'Montserrat Alternates Semi-Bold';text-align:end;text-anchor:end;fill:#000000;fill-opacity:0.78431373;stroke-width:0.06563824"
           d="m -199.77647,134.38614 c -0.23389,0 -0.40781,-0.099 -0.48578,-0.28187 l 1.22644,-0.23989 c -0.003,-0.50077 -0.36284,-0.80063 -0.80963,-0.80063 -0.47678,0 -0.82462,0.34184 -0.82462,0.81862 0,0.47678 0.34784,0.82162 0.88459,0.82162 0.27588,0 0.50077,-0.09 0.64171,-0.26088 l -0.19791,-0.23089 c -0.11695,0.11694 -0.25488,0.17392 -0.4348,0.17392 z m -0.069,-1.02253 c 0.2249,0 0.39282,0.13194 0.4438,0.32685 l -0.90558,0.17392 v -0.003 c 0,-0.30586 0.18891,-0.49777 0.46178,-0.49777 z" />
        <path
           id="path1937"
           style="font-style:normal;font-variant:normal;font-weight:600;font-stretch:normal;font-size:2.99861121px;font-family:'Montserrat Alternates';-inkscape-font-specification:'Montserrat Alternates Semi-Bold';text-align:end;text-anchor:end;fill:#000000;fill-opacity:0.78431373;stroke-width:0.06563824"
           d="m -197.48525,133.08174 v 0.19491 c -0.12894,-0.14393 -0.30886,-0.2129 -0.51276,-0.2129 -0.46779,0 -0.80963,0.32085 -0.80963,0.81862 0,0.49777 0.34184,0.82162 0.80963,0.82162 0.2189,0 0.40481,-0.075 0.53075,-0.2279 v 0.20691 h 0.35684 v -1.60126 z m -0.47078,1.3014 c -0.26988,0 -0.47378,-0.19491 -0.47378,-0.50077 0,-0.30586 0.2039,-0.50077 0.47378,-0.50077 0.27287,0 0.47678,0.19491 0.47678,0.50077 0,0.30586 -0.20391,0.50077 -0.47678,0.50077 z" />
        <path
           id="path1939"
           style="font-style:normal;font-variant:normal;font-weight:600;font-stretch:normal;font-size:2.99861121px;font-family:'Montserrat Alternates';-inkscape-font-specification:'Montserrat Alternates Semi-Bold';text-align:end;text-anchor:end;fill:#000000;fill-opacity:0.78431373;stroke-width:0.06563824"
           d="m -195.71143,133.06375 c -0.23389,0 -0.4288,0.078 -0.55175,0.22489 v -0.2069 h -0.35683 v 1.60126 h 0.37483 v -0.80963 c 0,-0.32085 0.17991,-0.48277 0.44679,-0.48277 0.23989,0 0.38082,0.13793 0.38082,0.4228 v 0.8696 h 0.37483 v -0.91758 c 0,-0.48277 -0.28487,-0.70167 -0.66869,-0.70167 z" />
        <path
           id="path1941"
           style="font-style:normal;font-variant:normal;font-weight:600;font-stretch:normal;font-size:2.99861121px;font-family:'Montserrat Alternates';-inkscape-font-specification:'Montserrat Alternates Semi-Bold';text-align:end;text-anchor:end;fill:#000000;fill-opacity:0.78431373;stroke-width:0.06563824"
           d="m -194.44438,134.70399 c 0.13494,0 0.24589,-0.10495 0.24589,-0.24889 0,-0.14993 -0.11095,-0.24888 -0.24589,-0.24888 -0.13493,0 -0.24588,0.099 -0.24588,0.24888 0,0.14394 0.11095,0.24889 0.24588,0.24889 z" />
      </g>
      <rect
         transform="rotate(66.667)"
         y="225.84308"
         x="53.825275"
         height="1.5049082"
         width="1.5049006"
         id="rect867-0-7"
         style="fill:#fce14b;fill-opacity:1;stroke:none;stroke-width:0.00802386;stroke-linejoin:round" />
      <rect
         transform="matrix(0.39607376,0.9182187,-0.91821812,0.39607509,0,0)"
         y="226.25432"
         x="54.084621"
         height="1.0877823"
         width="1.0877781"
         id="rect867-6-61"
         style="fill:#c95731;fill-opacity:1;stroke:none;stroke-width:0.00579983;stroke-linejoin:round" />
    </g>
    <g
       id="g2031">
      <rect
         y="-26.099045"
         x="-88.94075"
         height="100"
         width="100"
         id="rect851"
         style="fill:#358340;fill-opacity:1;stroke:none;stroke-width:0.30710167;stroke-linejoin:round" />
      <rect
         transform="rotate(66.667)"
         y="11.291446"
         x="-17.324406"
         height="62.622269"
         width="62.621956"
         id="rect867"
         style="fill:#fce14b;fill-opacity:1;stroke:none;stroke-width:0.33388907;stroke-linejoin:round" />
      <g
         id="text4527"
         style="font-style:normal;font-variant:normal;font-weight:normal;font-stretch:normal;font-size:21.55050278px;line-height:1.25;font-family:'Montserrat Alternates';-inkscape-font-specification:'Montserrat Alternates';text-align:end;letter-spacing:0px;word-spacing:0px;text-anchor:end;fill:#000000;fill-opacity:0.78431373;stroke:none;stroke-width:0.47844154"
         transform="scale(0.927056,1.0786835)"
         aria-label="Frido">
        <path
           id="path1842"
           style="font-style:normal;font-variant:normal;font-weight:600;font-stretch:normal;font-size:21.55050278px;font-family:'Montserrat Alternates';-inkscape-font-specification:'Montserrat Alternates Semi-Bold';text-align:end;text-anchor:end;fill:#000000;fill-opacity:0.78431373;stroke-width:0.47844154"
           d="m -60.800173,10.665191 c 1.185277,0 2.392106,0.258606 3.361878,0.926672 l 0.883571,-2.2843536 c -1.120626,-0.7327171 -2.672263,-1.0990757 -4.374752,-1.0990757 -4.116146,0 -6.594454,2.1981513 -6.594454,5.8617363 v 9.439121 h 2.801565 v -5.775535 h 6.572904 v -2.370555 h -6.572904 V 14.07017 c 0,-2.219701 1.314581,-3.404979 3.922192,-3.404979 z" />
        <path
           id="path1844"
           style="font-style:normal;font-variant:normal;font-weight:600;font-stretch:normal;font-size:21.55050278px;font-family:'Montserrat Alternates';-inkscape-font-specification:'Montserrat Alternates Semi-Bold';text-align:end;text-anchor:end;fill:#000000;fill-opacity:0.78431373;stroke-width:0.47844154"
           d="m -52.377294,13.682261 v -1.680939 h -2.56451 v 11.507969 h 2.693813 V 17.92771 c 0,-2.349004 1.29303,-3.555832 3.340328,-3.555832 0.193955,0 0.387909,0.02155 0.624965,0.06465 v -2.56451 c -1.917995,0 -3.318778,0.603414 -4.094596,1.810242 z" />
        <path
           id="path1846"
           style="font-style:normal;font-variant:normal;font-weight:600;font-stretch:normal;font-size:21.55050278px;font-family:'Montserrat Alternates';-inkscape-font-specification:'Montserrat Alternates Semi-Bold';text-align:end;text-anchor:end;fill:#000000;fill-opacity:0.78431373;stroke-width:0.47844154"
           d="m -44.660866,10.104878 c 1.012874,0 1.72404,-0.7327171 1.72404,-1.6809392 0,-0.8835707 -0.732717,-1.5516362 -1.72404,-1.5516362 -0.991323,0 -1.72404,0.7111665 -1.72404,1.6162877 0,0.9051211 0.732717,1.6162877 1.72404,1.6162877 z m -1.357682,13.404413 h 2.693813 V 12.001322 h -2.693813 z" />
        <path
           id="path1848"
           style="font-style:normal;font-variant:normal;font-weight:600;font-stretch:normal;font-size:21.55050278px;font-family:'Montserrat Alternates';-inkscape-font-specification:'Montserrat Alternates Semi-Bold';text-align:end;text-anchor:end;fill:#000000;fill-opacity:0.78431373;stroke-width:0.47844154"
           d="m -31.212007,7.5188176 v 5.9048374 c -0.905121,-1.055974 -2.219702,-1.551636 -3.706686,-1.551636 -3.340328,0 -5.818636,2.305904 -5.818636,5.883287 0,3.577384 2.478308,5.904838 5.818636,5.904838 1.573186,0 2.909318,-0.538762 3.814439,-1.637838 v 1.486985 h 2.58606 V 7.5188176 Z M -34.595436,21.35424 c -1.939545,0 -3.42653,-1.400782 -3.42653,-3.598934 0,-2.198151 1.486985,-3.598934 3.42653,-3.598934 1.939545,0 3.42653,1.400783 3.42653,3.598934 0,2.198152 -1.486985,3.598934 -3.42653,3.598934 z" />
        <path
           id="path1850"
           style="font-style:normal;font-variant:normal;font-weight:600;font-stretch:normal;font-size:21.55050278px;font-family:'Montserrat Alternates';-inkscape-font-specification:'Montserrat Alternates Semi-Bold';text-align:end;text-anchor:end;fill:#000000;fill-opacity:0.78431373;stroke-width:0.47844154"
           d="m -19.801017,23.660144 c 3.577384,0 6.141893,-2.456757 6.141893,-5.904838 0,-3.44808 -2.564509,-5.883287 -6.141893,-5.883287 -3.534282,0 -6.120343,2.435207 -6.120343,5.883287 0,3.448081 2.586061,5.904838 6.120343,5.904838 z m 0,-2.305904 c -1.939545,0 -3.404979,-1.400782 -3.404979,-3.598934 0,-2.198151 1.465434,-3.598934 3.404979,-3.598934 1.961096,0 3.42653,1.400783 3.42653,3.598934 0,2.198152 -1.465434,3.598934 -3.42653,3.598934 z" />
      </g>
      <g
         id="text4527-1"
         style="font-style:normal;font-variant:normal;font-weight:normal;font-stretch:normal;font-size:21.55050278px;line-height:1.25;font-family:'Montserrat Alternates';-inkscape-font-specification:'Montserrat Alternates';text-align:end;letter-spacing:0px;word-spacing:0px;text-anchor:end;fill:#000000;fill-opacity:0.78431373;stroke:none;stroke-width:0.47844154"
         transform="scale(0.927056,1.0786835)"
         aria-label="   lean.">
        <path
           id="path1853"
           style="font-style:normal;font-variant:normal;font-weight:300;font-stretch:normal;font-size:21.55050278px;font-family:'Montserrat Alternates';-inkscape-font-specification:'Montserrat Alternates Light';text-align:end;text-anchor:end;fill:#000000;fill-opacity:0.78431373;stroke-width:0.47844154"
           d="m -42.4649,42.616845 c 0.43101,0 0.905121,-0.0862 1.29303,-0.237055 l -0.0862,-0.905121 c -0.258606,0.107752 -0.646515,0.215505 -1.077525,0.215505 -1.336131,0 -1.982646,-0.797369 -1.982646,-2.241252 V 26.54017 h -1.077526 v 13.038055 c 0,1.874893 1.012874,3.03862 2.930869,3.03862 z" />
        <path
           id="path1855"
           style="font-style:normal;font-variant:normal;font-weight:300;font-stretch:normal;font-size:21.55050278px;font-family:'Montserrat Alternates';-inkscape-font-specification:'Montserrat Alternates Light';text-align:end;text-anchor:end;fill:#000000;fill-opacity:0.78431373;stroke-width:0.47844154"
           d="m -34.55452,41.647073 c -2.305904,0 -4.051495,-1.29303 -4.590257,-3.361879 l 9.503771,-1.853343 c -0.150853,-2.99552 -2.284353,-5.236772 -5.279873,-5.236772 -3.189474,0 -5.473828,2.370555 -5.473828,5.710883 0,3.340328 2.413657,5.710883 5.818636,5.710883 1.72404,0 3.254126,-0.624964 4.245449,-1.831792 l -0.624964,-0.711167 c -0.86202,1.055975 -2.155051,1.573187 -3.598934,1.573187 z m -0.366359,-9.503772 c 2.305904,0 3.900641,1.659389 4.202348,3.663586 l -8.5771,1.680939 c -0.02155,-0.215505 -0.0431,-0.452561 -0.0431,-0.668066 0,-2.736914 1.831793,-4.676459 4.417853,-4.676459 z" />
        <path
           id="path1857"
           style="font-style:normal;font-variant:normal;font-weight:300;font-stretch:normal;font-size:21.55050278px;font-family:'Montserrat Alternates';-inkscape-font-specification:'Montserrat Alternates Light';text-align:end;text-anchor:end;fill:#000000;fill-opacity:0.78431373;stroke-width:0.47844154"
           d="m -17.364628,31.281281 v 2.607611 c -0.905122,-1.70249 -2.586061,-2.693813 -4.590258,-2.693813 -3.167923,0 -5.560029,2.327454 -5.560029,5.710883 0,3.361879 2.392106,5.710883 5.560029,5.710883 2.025748,0 3.728237,-0.991323 4.611808,-2.736913 v 2.650711 h 1.055975 V 31.281281 Z m -4.525606,10.365792 c -2.58606,0 -4.525606,-1.917995 -4.525606,-4.741111 0,-2.823116 1.939546,-4.74111 4.525606,-4.74111 2.58606,0 4.525606,1.917994 4.525606,4.74111 0,2.823116 -1.939546,4.741111 -4.525606,4.741111 z" />
        <path
           id="path1859"
           style="font-style:normal;font-variant:normal;font-weight:300;font-stretch:normal;font-size:21.55050278px;font-family:'Montserrat Alternates';-inkscape-font-specification:'Montserrat Alternates Light';text-align:end;text-anchor:end;fill:#000000;fill-opacity:0.78431373;stroke-width:0.47844154"
           d="m -6.2277315,31.195079 c -2.1334997,0 -3.7066864,0.948222 -4.4609545,2.521409 v -2.435207 h -1.034424 v 11.249362 h 1.077525 v -5.991039 c 0,-2.672263 1.6162882,-4.374752 4.267,-4.374752 2.2843533,0 3.642035,1.336131 3.642035,3.87909 v 6.486701 h 1.0775251 V 35.95774 c 0,-3.146373 -1.8317927,-4.762661 -4.5687066,-4.762661 z" />
        <path
           id="path1861"
           style="font-style:normal;font-variant:normal;font-weight:300;font-stretch:normal;font-size:21.55050278px;font-family:'Montserrat Alternates';-inkscape-font-specification:'Montserrat Alternates Light';text-align:end;text-anchor:end;fill:#000000;fill-opacity:0.78431373;stroke-width:0.47844154"
           d="m 2.6689229,42.616845 c 0.4956616,0 0.9051211,-0.409459 0.9051211,-0.926671 0,-0.517212 -0.4094595,-0.905121 -0.9051211,-0.905121 -0.4956615,0 -0.9051211,0.387909 -0.9051211,0.905121 0,0.517212 0.4094596,0.926671 0.9051211,0.926671 z" />
      </g>
      <rect
         transform="matrix(0.39607376,0.9182187,-0.91821812,0.39607509,0,0)"
         y="37.97728"
         x="-11.866796"
         height="5.6784334"
         width="5.6784124"
         id="rect867-6"
         style="fill:#c95731;fill-opacity:1;stroke:none;stroke-width:0.03027626;stroke-linejoin:round" />
      <rect
         transform="rotate(66.667)"
         y="78.251595"
         x="13.234171"
         height="21.271891"
         width="21.271784"
         id="rect867-7"
         style="fill:#fce14b;fill-opacity:1;stroke:none;stroke-width:0.11341736;stroke-linejoin:round" />
      <rect
         transform="rotate(66.667)"
         y="-8.9522762"
         x="-17.15682"
         height="16.252792"
         width="16.252708"
         id="rect867-5"
         style="fill:#fce14b;fill-opacity:1;stroke:none;stroke-width:0.08665655;stroke-linejoin:round" />
      <rect
         transform="rotate(66.667)"
         y="48.991089"
         x="-45.736694"
         height="24.694204"
         width="24.69408"
         id="rect867-7-3"
         style="fill:#fce14b;fill-opacity:1;stroke:none;stroke-width:0.13166444;stroke-linejoin:round" />
      <rect
         transform="matrix(0.39607376,0.9182187,-0.91821812,0.39607509,0,0)"
         y="61.93866"
         x="-44.019035"
         height="10.107312"
         width="10.107275"
         id="rect867-6-5"
         style="fill:#c95731;fill-opacity:1;stroke:none;stroke-width:0.05389015;stroke-linejoin:round" />
      <rect
         transform="matrix(0.39607376,0.9182187,-0.91821812,0.39607509,0,0)"
         y="80.179802"
         x="27.152193"
         height="5.6784334"
         width="5.6784124"
         id="rect867-6-6"
         style="fill:#c95731;fill-opacity:1;stroke:none;stroke-width:0.03027626;stroke-linejoin:round" />
      <rect
         transform="matrix(0.39607376,0.9182187,-0.91821812,0.39607509,0,0)"
         y="-7.2363186"
         x="-8.0874853"
         height="5.6784334"
         width="5.6784124"
         id="rect867-6-2"
         style="fill:#c95731;fill-opacity:1;stroke:none;stroke-width:0.03027626;stroke-linejoin:round" />
    </g>
  </g>
</svg>
