<?xml version="1.0" encoding="UTF-8" standalone="no"?>
<svg
   xmlns:dc="http://purl.org/dc/elements/1.1/"
   xmlns:cc="http://creativecommons.org/ns#"
   xmlns:rdf="http://www.w3.org/1999/02/22-rdf-syntax-ns#"
   xmlns:svg="http://www.w3.org/2000/svg"
   xmlns="http://www.w3.org/2000/svg"
   xmlns:sodipodi="http://sodipodi.sourceforge.net/DTD/sodipodi-0.dtd"
   xmlns:inkscape="http://www.inkscape.org/namespaces/inkscape"
   id="svg8"
   version="1.1"
   viewBox="0 0 270.93333 270.93334"
   height="1024"
   width="1024"
   sodipodi:docname="vp_quad.svg"
   inkscape:version="0.92.2 5c3e80d, 2017-08-06">
  <sodipodi:namedview
     pagecolor="#ffffff"
     bordercolor="#666666"
     borderopacity="1"
     objecttolerance="10"
     gridtolerance="10"
     guidetolerance="10"
     inkscape:pageopacity="0"
     inkscape:pageshadow="2"
     inkscape:window-width="1387"
     inkscape:window-height="855"
     id="namedview872"
     showgrid="false"
     inkscape:zoom="0.31347656"
     inkscape:cx="415.42289"
     inkscape:cy="429.80272"
     inkscape:window-x="53"
     inkscape:window-y="1"
     inkscape:window-maximized="1"
     inkscape:current-layer="svg8" />
  <defs
     id="defs2">
    <inkscape:path-effect
       effect="spiro"
       id="path-effect952"
       is_visible="true" />
    <inkscape:path-effect
       effect="simplify"
       id="path-effect950"
       is_visible="true"
       steps="1"
       threshold="0.000408163"
       smooth_angles="360"
       helper_size="0"
       simplify_individual_paths="false"
       simplify_just_coalesce="false"
       simplifyindividualpaths="false"
       simplifyJustCoalesce="false" />
    <inkscape:path-effect
       effect="spiro"
       id="path-effect946"
       is_visible="true" />
    <inkscape:path-effect
       effect="simplify"
       id="path-effect944"
       is_visible="true"
       steps="1"
       threshold="0.000408163"
       smooth_angles="360"
       helper_size="0"
       simplify_individual_paths="false"
       simplify_just_coalesce="false"
       simplifyindividualpaths="false"
       simplifyJustCoalesce="false" />
  </defs>
  <metadata
     id="metadata5">
    <rdf:RDF>
      <cc:Work
         rdf:about="">
        <dc:format>image/svg+xml</dc:format>
        <dc:type
           rdf:resource="http://purl.org/dc/dcmitype/StillImage" />
        <dc:title />
      </cc:Work>
    </rdf:RDF>
  </metadata>
  <g
     transform="translate(0,-26.066641)"
     id="layer1"
     style="stroke-width:2.46944446;stroke-miterlimit:4;stroke-dasharray:none">
    <rect
       y="29.730448"
       x="3.2072339"
       height="264.06229"
       width="265.13138"
       id="rect815"
       style="opacity:1;fill:none;fill-opacity:0.99203186;fill-rule:nonzero;stroke:#000000;stroke-width:2.46944446;stroke-miterlimit:4;stroke-dasharray:none;stroke-opacity:1" />
  </g>
  <path
     style="fill:none;fill-rule:evenodd;stroke:#000000;stroke-width:2.3459723;stroke-linecap:butt;stroke-linejoin:miter;stroke-miterlimit:4;stroke-dasharray:none;stroke-opacity:1"
     d="M 133.35659,267.13521 V 3.7981307 h 0.42201"
     id="path4563"
     inkscape:connector-curvature="0" />
  <path
     style="fill:none;fill-rule:evenodd;stroke:#000000;stroke-width:2.08102608;stroke-linecap:butt;stroke-linejoin:miter;stroke-miterlimit:4;stroke-dasharray:none;stroke-opacity:1"
     d="M 133.30902,130.82451 H 268.40124 V 130.4025"
     id="path4565"
     inkscape:connector-curvature="0" />
  <rect
     style="opacity:1;fill:#ffffff;fill-opacity:0.98802394;fill-rule:nonzero;stroke:none;stroke-width:0.55562496;stroke-miterlimit:4;stroke-dasharray:none;stroke-opacity:1"
     id="rect996"
     width="36.715263"
     height="37.559296"
     x="114.95139"
     y="112.04486" />
  <rect
     y="112.04486"
     x="114.95139"
     height="37.559296"
     width="36.715263"
     id="rect998"
     style="opacity:1;fill:#ffffff;fill-opacity:0.98802394;fill-rule:nonzero;stroke:none;stroke-width:0.55562496;stroke-miterlimit:4;stroke-dasharray:none;stroke-opacity:1" />
  <rect
     style="opacity:1;fill:#ffffff;fill-opacity:0.98802394;fill-rule:nonzero;stroke:#000000;stroke-width:1.02849638;stroke-miterlimit:4;stroke-dasharray:none;stroke-opacity:1"
     id="rect1000"
     width="24.060316"
     height="23.638302"
     x="120.90442"
     y="119.63837" />
  <path
     style="fill:none;fill-rule:evenodd;stroke:#000000;stroke-width:1.16500001;stroke-linecap:butt;stroke-linejoin:miter;stroke-opacity:1;stroke-miterlimit:4;stroke-dasharray:none"
     d="m 132.93458,119.43011 0.42201,23.2108"
     id="path1002"
     inkscape:connector-curvature="0" />
  <rect
     style="opacity:1;fill:none;fill-opacity:0.98802394;fill-rule:nonzero;stroke:#000000;stroke-width:1.06500006;stroke-miterlimit:4;stroke-dasharray:none;stroke-opacity:1"
     id="rect1014"
     width="24.057577"
     height="6.8604903"
     x="120.90442"
     y="119.63837" />
  <path
     style="fill:none;fill-rule:evenodd;stroke:#000000;stroke-width:0.26458332px;stroke-linecap:butt;stroke-linejoin:miter;stroke-opacity:1"
     d="m 132.93458,119.43011 h 4.22015 z"
     id="path1018"
     inkscape:connector-curvature="0" />
  <path
     style="opacity:1;fill:none;fill-opacity:0.98802394;fill-rule:nonzero;stroke:#000000;stroke-width:0.5;stroke-miterlimit:4;stroke-dasharray:none;stroke-opacity:1"
     id="path954"
     d="m 133.23784,119.98048 c 0.14577,7.9e-4 0.29157,0.002 0.43734,5.3e-4 0.10721,-0.0186 0.20622,0.0229 0.31067,0.017 0.0901,-0.008 0.18023,-0.0127 0.27066,-0.0147 0.08,-0.0105 0.13974,0.0562 0.20852,0.0829 0.054,0.0159 0.10663,0.0184 0.16248,0.0199 0.0653,5.3e-4 0.13059,5.3e-4 0.19588,-2.7e-4 0.073,-2.6e-4 0.14601,8e-4 0.219,-2.5e-4 0.0794,5.3e-4 0.1588,-1.8e-4 0.2382,5.3e-4 0.10496,0.0109 0.19579,-0.007 0.29516,-0.0352 0.13032,-0.0238 0.2352,-0.0773 0.35147,-0.13861 0.1099,-0.0188 0.21094,-0.0496 0.31214,-0.0959 -0.13366,0.0758 -0.53055,0.30994 -0.40097,0.22737 0.15514,-0.0989 0.31653,-0.18768 0.47774,-0.27629 0.0227,-0.0125 0.096,-0.0376 0.0736,-0.0248 -0.31042,0.17817 -0.88164,0.49635 0.0711,-0.0365 -0.1276,0.0555 0.34175,-0.15581 0.22464,-0.0859 -0.27551,0.16461 -0.90319,0.49056 0.12077,-0.0505 0.11334,-0.0526 0.23047,-0.0977 0.34849,-0.13968 -0.13331,0.0739 -0.26575,0.14937 -0.39993,0.22168 -0.021,0.0113 0.0394,-0.0268 0.0601,-0.0385 0.17198,-0.0972 0.34467,-0.19322 0.5179,-0.2882 0.34696,-0.19024 -0.55574,0.33514 -0.22561,0.13046 0.1668,-0.0964 0.3336,-0.19274 0.50039,-0.28911 0.0222,-0.0107 0.088,-0.0441 0.0666,-0.032 -0.13037,0.0739 -0.51998,0.29771 -0.39357,0.21725 0.16413,-0.10447 0.33663,-0.19524 0.5069,-0.28938 0.0232,-0.0128 0.0959,-0.0446 0.073,-0.0313 -0.12776,0.0744 -0.25873,0.14323 -0.38809,0.21485 0.19161,-0.15323 0.43274,-0.24236 0.62706,-0.38626 0.12011,-0.0889 -0.26085,0.1461 -0.39393,0.21411 -0.0393,0.0201 0.0713,-0.0521 0.10678,-0.0784 0.0913,-0.076 0.18961,-0.15208 0.25887,-0.24964 0.0857,-0.0798 0.16388,-0.16187 0.23521,-0.25453 0.0806,-0.0695 0.1654,-0.13368 0.23426,-0.21557 0.0828,-0.0943 0.13275,-0.21037 0.19975,-0.3159 0.0795,-0.13252 0.1434,-0.27309 0.20759,-0.41359 0.0611,-0.12416 0.14348,-0.23756 0.20254,-0.36255 0.0269,-0.0674 0.0316,-0.13942 0.0316,-0.2111 -0.001,-0.11073 -0.001,-0.22146 -0.001,-0.3322 0.0105,-0.22315 -0.001,-0.44176 -0.0561,-0.6586 -0.0281,-0.16603 -0.0946,-0.32136 -0.15472,-0.47761 -0.0446,-0.0864 -0.10892,-0.15411 -0.1667,-0.23065 -0.0646,-0.061 -0.10438,-0.13344 -0.15565,-0.2037 -0.046,-0.071 -0.10662,-0.12602 -0.15999,-0.1906 -0.0701,-0.0549 -0.15306,-0.095 -0.20746,-0.16855 -0.0811,-0.0738 -0.19033,-0.0865 -0.28587,-0.12927 -0.12905,-0.0545 -0.26915,-0.0769 -0.40793,-0.0889 -0.19414,-0.0191 -0.38438,-0.0662 -0.57878,-0.0893 -0.18009,-0.0194 -0.36113,-0.0234 -0.54207,-0.0254 -0.20607,-0.001 -0.41214,-7.9e-4 -0.6182,-5.3e-4 -0.15294,10e-4 -0.30586,10e-4 -0.4588,0.002 -0.11559,0.001 -0.22057,0.0576 -0.33405,0.0815 -0.0198,0.008 -0.0404,0.0149 -0.0595,0.0248 -0.0454,0.0237 -0.18198,0.0937 -0.13811,0.0673 0.79825,-0.48041 0.49041,-0.28401 0.36043,-0.20063 -0.16356,0.0952 -0.32651,0.19148 -0.49069,0.28564 -0.0444,0.0255 -0.0898,0.0362 -0.13443,0.0616 -0.0165,0.009 -0.0675,0.0345 -0.0511,0.0249 0.13667,-0.0795 0.27472,-0.15665 0.41207,-0.23498 -1.32734,0.76212 -0.0529,0.0328 -0.0801,0.0477 -0.16891,0.0927 -0.33897,0.18386 -0.50261,0.28562 -0.13025,0.081 0.26597,-0.1531 0.40236,-0.22328 0.0297,-0.0153 -0.0305,0.029 -0.0931,0.0758 -0.0808,0.0649 -0.17087,0.12017 -0.2424,0.19569 -0.0526,0.0447 -0.0845,0.10051 -0.13021,0.15118 -0.12156,0.12515 -0.17914,0.29378 -0.2635,0.44315 -0.0902,0.1371 -0.17239,0.27871 -0.2548,0.42079 -0.0862,0.13109 -0.13323,0.27918 -0.20089,0.41898 -0.0369,0.10894 -0.10448,0.20304 -0.1401,0.31199 -0.0322,0.0556 -0.0444,0.10406 -0.0392,0.16706 0.009,0.0604 0.0132,0.11734 -0.0117,0.17433 -0.0399,0.0502 -0.0613,0.11216 -0.0898,0.16925 -0.0127,0.0663 0.002,0.13168 -0.008,0.19818 -0.0247,0.0748 -0.0677,0.13722 -0.11823,0.19646 -0.17902,0.2722 0.136,0.0646 -0.54001,0.31446 -0.0102,-0.10684 0.003,-0.21419 -0.0141,-0.32009 -0.0107,-0.1849 -0.0962,-0.35228 -0.18473,-0.51154 -0.0911,-0.18391 -0.2091,-0.35156 -0.30786,-0.531 -0.0738,-0.11519 -0.14604,-0.23104 -0.22145,-0.34579 -0.10479,-0.11245 -0.18714,-0.24306 -0.28371,-0.36193 -0.0903,-0.14466 -0.21912,-0.25522 -0.32757,-0.38508 -0.14648,-0.10698 -0.3007,-0.20854 -0.46357,-0.2878 -0.0296,-0.0101 -0.0603,-0.0175 -0.0889,-0.0302 -0.18573,-0.0823 -0.01,-0.024 -0.18166,-0.0885 -0.0883,-0.0332 -0.17011,-0.0464 -0.25621,-0.0873 -0.18804,-0.0747 -0.39226,-0.0657 -0.58794,-0.10131 -0.20309,-0.0511 -0.41167,-0.0702 -0.6201,-0.0825 -0.17787,-0.009 -0.35599,-0.009 -0.53402,-0.009 -0.0795,0.009 -0.17096,-0.0202 -0.24576,0.0179 -0.15676,0.0799 0.0645,-0.002 -0.10715,0.0563 -0.19616,0.12544 0.0976,-0.0637 0.34014,-0.18731 0.0249,-0.0127 -0.0428,0.0359 -0.0646,0.0533 -0.0627,0.05 -0.12299,0.0988 -0.18091,0.15449 -0.097,0.11315 -0.21971,0.20469 -0.30434,0.32769 -0.0834,0.096 -0.11127,0.22352 -0.17768,0.32762 -0.0583,0.0888 -0.0964,0.18796 -0.14623,0.28225 -0.04,0.071 -0.0556,0.1494 -0.0617,0.22971 -0.007,0.0907 -0.004,0.18167 -0.005,0.27252 -0.0162,0.0894 -0.0595,0.16996 -0.0818,0.25803 -0.0196,0.0746 -0.0206,0.15226 -0.0225,0.2289 -7e-5,0.0718 -0.002,0.14384 5.3e-4,0.21567 -5.3e-4,0.0682 1.9e-4,0.1363 -1.6e-4,0.20447 -0.001,0.0803 0.001,0.16051 -2.6e-4,0.24075 0.005,0.0992 0.0485,0.19642 0.0991,0.2808 0.066,0.13907 0.13794,0.27288 0.19328,0.41732 0.0455,0.13618 0.12598,0.2583 0.21453,0.36931 0.0854,0.0907 0.15959,0.18967 0.25363,0.27204 0.0338,0.0717 0.11247,0.0766 0.16471,0.12311 0.0827,0.0736 -0.005,0.0191 0.0738,0.0633 0.0964,0.0701 0.20552,0.11454 0.30087,0.18534 0.10264,0.0571 0.20417,0.11339 0.30677,0.17016 0.10403,0.0631 0.21388,0.11937 0.32665,0.16677 0.12683,0.0778 0.26656,0.12549 0.39346,0.20347 0.1248,0.033 0.23525,0.10894 0.3588,0.14299 0.0892,0.0146 0.17947,0.006 0.26922,0.004 0.10147,-0.0188 0.18418,0.0143 0.27649,0.0507 0.0688,0.0273 0.13871,0.0392 0.2115,0.048 0.062,0.003 0.12404,0.002 0.18605,0.002 0.0907,-1.2e-4 0.1814,-2.7e-4 0.2721,-9e-5 0.0916,-5.3e-4 0.18314,-9e-5 0.27471,-2.6e-4 0.0656,-1e-4 0.1311,-8e-4 0.19667,-2.7e-4 0.0816,0.0111 0.15459,0.0198 0.23895,0.0155 0.0941,-0.0103 0.18164,0.0378 0.26745,0.0711 0.0575,0.0182 0.11575,0.0105 0.16816,0.0399 0.0766,0.001 0.14207,0.0496 0.2159,0.0695 0.054,0.0139 0.10994,0.0151 0.16541,0.0157 0.0501,1.6e-4 0.10017,-7.9e-4 0.15024,-5.3e-4 0.0544,-1e-5 0.10882,-5.3e-4 0.16323,1e-5 0.0568,-7.9e-4 0.11356,1e-4 0.17034,-1.1e-4 0.008,-6e-5 0.0167,-1.1e-4 0.0251,-1.7e-4 0,0 -0.42467,0.30854 -0.42467,0.30854 v 0 c -0.008,-6e-5 -0.0164,-1.1e-4 -0.0246,-1.7e-4 -0.0567,-2.2e-4 -0.11337,5.3e-4 -0.17004,-6e-5 -0.0546,5.2e-4 -0.10921,2.3e-4 -0.16382,5.2e-4 -0.0501,5.3e-4 -0.10037,8e-4 -0.15049,-0.001 -0.0586,-0.002 -0.11718,-0.009 -0.17331,-0.0273 -0.0734,-0.0244 -0.1409,-0.064 -0.21893,-0.0741 -0.056,-0.0129 -0.11422,-0.0153 -0.16786,-0.0387 -0.0821,-0.033 -0.16236,-0.0682 -0.25337,-0.0545 -0.082,0.002 -0.15993,-0.0167 -0.24155,-0.0161 -0.0653,5.3e-4 -0.13049,-2.2e-4 -0.19575,-2.6e-4 -0.0913,-2.2e-4 -0.18269,2.6e-4 -0.27402,-1.1e-4 -0.0911,5.3e-4 -0.18226,5.3e-4 -0.27339,10e-4 -0.0638,2.6e-4 -0.12796,0.001 -0.19133,-0.007 -0.0747,-0.0115 -0.1456,-0.0329 -0.21635,-0.0594 -0.0881,-0.0332 -0.16978,-0.0462 -0.26433,-0.0338 -0.0939,0.003 -0.18795,0.008 -0.2793,-0.0191 -0.12258,-0.0472 -0.24085,-0.10556 -0.36336,-0.15328 -0.12763,-0.0722 -0.26361,-0.12689 -0.3916,-0.19824 -0.11106,-0.055 -0.22556,-0.1009 -0.32895,-0.16937 -0.10493,-0.0554 -0.20706,-0.11562 -0.30927,-0.17584 -0.0981,-0.065 -0.20437,-0.1159 -0.30162,-0.18276 -0.0833,-0.0613 -0.17039,-0.11786 -0.24134,-0.19403 -0.0943,-0.0866 -0.1724,-0.18638 -0.25926,-0.28004 -0.0874,-0.11886 -0.17341,-0.24245 -0.22124,-0.38381 -0.0486,-0.14367 -0.12598,-0.27153 -0.18946,-0.40822 -0.0535,-0.0914 -0.1052,-0.19882 -0.11384,-0.30458 -0.001,-0.0801 0.001,-0.16024 -2.7e-4,-0.24036 -5.3e-4,-0.0679 5e-5,-0.13584 -7.9e-4,-0.20376 0.001,-0.0724 -8e-4,-0.14485 2.4e-4,-0.21725 5.3e-4,-0.0805 0.003,-0.16136 0.0164,-0.24085 0.0256,-0.0838 0.045,-0.16929 0.0895,-0.2458 -0.001,-0.092 -7.9e-4,-0.18401 0.001,-0.276 0.009,-0.0834 0.0103,-0.17423 0.0556,-0.24703 0.0412,-0.0996 0.10567,-0.19131 0.13972,-0.29755 0.0974,-0.0657 0.0868,-0.23682 0.18238,-0.31889 0.0785,-0.13284 0.20066,-0.22224 0.30146,-0.33915 0.22634,-0.22966 0.50163,-0.40285 0.79472,-0.54104 0.11924,-0.0556 0.23193,-0.0688 0.36378,-0.0574 0.17775,7.9e-4 0.35549,0.004 0.533,0.0136 0.20963,0.0143 0.41869,0.0373 0.62341,0.0865 0.20011,0.0294 0.40684,0.0302 0.59602,0.11153 0.17552,0.0708 0.35945,0.11977 0.52838,0.20848 0.16582,0.088 0.33036,0.1841 0.47491,0.30467 0.1118,0.12769 0.23636,0.24303 0.32956,0.3861 0.0949,0.1223 0.18376,0.24957 0.28709,0.36525 0.0764,0.1156 0.14952,0.23279 0.2222,0.35026 0.098,0.17962 0.21152,0.34968 0.30485,0.53215 0.0916,0.16196 0.18544,0.33568 0.19714,0.52396 0.0225,0.10694 0.0124,0.21468 0.0181,0.32347 -0.55343,0.32064 -0.52057,0.41434 -0.4054,0.13131 0.0504,-0.0596 0.0938,-0.10592 0.12822,-0.17515 0.027,-0.063 -0.003,-0.13123 0.008,-0.19851 0.008,-0.0652 0.0564,-0.12381 0.0799,-0.1884 0.0523,-0.0322 0.0344,-0.0844 0.0287,-0.13788 -0.007,-0.0666 -0.0168,-0.13242 0.0324,-0.18619 0.0324,-0.11591 0.0988,-0.20907 0.13937,-0.32208 0.0754,-0.13738 0.11015,-0.2903 0.19937,-0.42154 0.085,-0.14197 0.16124,-0.28693 0.25651,-0.42191 0.0926,-0.14621 0.14059,-0.31904 0.25446,-0.44993 0.0161,-0.0183 0.0271,-0.0419 0.0469,-0.0562 0.006,-0.005 0.0183,2.6e-4 0.0226,-0.006 0.0236,-0.0359 0.004,-0.0709 0.0608,-0.0878 0.0668,-0.0857 0.15694,-0.13904 0.23885,-0.20981 0.17408,-0.10139 0.51844,-0.32095 0.58271,-0.36802 0.12177,-0.0892 -0.52202,0.30337 -0.39079,0.22879 0.0475,-0.027 1.14247,-0.66558 0.0797,-0.0459 0.16076,-0.0938 0.32112,-0.18836 0.48226,-0.28155 0.0464,-0.0268 0.0958,-0.044 0.1438,-0.067 0.0139,-0.007 0.0538,-0.0297 0.0405,-0.0219 -0.13344,0.0786 -0.26744,0.15627 -0.40115,0.23441 0.2185,-0.16855 0.47794,-0.30196 0.73794,-0.39908 0.11303,-0.0282 0.22058,-0.0828 0.3402,-0.0715 0.15187,2.6e-4 0.30373,-1.4e-4 0.4556,8e-4 0.20649,-2.7e-4 0.41299,-0.001 0.61948,2.6e-4 0.18197,0.002 0.36377,0.008 0.54458,0.0308 0.1943,0.0253 0.38524,0.0725 0.5807,0.0864 0.14261,0.0159 0.28502,0.0441 0.41777,0.1002 0.10727,0.0387 0.21836,0.0689 0.30215,0.15204 0.0556,0.0702 0.14369,0.10396 0.20643,0.16641 0.055,0.0652 0.11378,0.12352 0.16243,0.19412 0.049,0.0714 0.0917,0.14079 0.15509,0.20255 0.0591,0.0812 0.12584,0.15273 0.1709,0.24414 0.0629,0.15722 0.12365,0.31865 0.1527,0.48587 0.0581,0.21935 0.0743,0.44131 0.066,0.66792 0.001,0.10996 0.003,0.21992 0.005,0.32986 10e-4,0.0782 -0.002,0.15612 -0.0238,0.23205 -0.0542,0.12855 -0.13963,0.24202 -0.20483,0.36407 -0.0652,0.14339 -0.13026,0.28372 -0.20448,0.42192 -0.0766,0.1041 -0.11317,0.21931 -0.19516,0.31785 -0.0645,0.0871 -0.14162,0.16038 -0.23235,0.22022 -0.0858,0.0708 -0.12726,0.19945 -0.24087,0.24312 -0.0474,0.10171 -0.0552,0.0667 -0.11455,0.12844 -0.0148,0.0155 -0.0168,0.0403 -0.0308,0.0564 -0.0294,0.0339 -0.083,0.0411 -0.1068,0.0819 -0.0914,0.0857 0.004,0.005 -0.10921,0.0745 -1.29171,0.79805 -0.14442,0.10115 -0.1121,0.0842 0.0448,-0.0235 -0.14879,0.1456 -0.11838,0.0951 -0.16743,0.0998 -0.33355,0.20186 -0.5023,0.29944 -0.0231,0.0134 -0.0955,0.0476 -0.073,0.0332 0.12561,-0.0798 0.50767,-0.31082 0.38268,-0.23002 -0.16239,0.10498 -0.32922,0.20297 -0.49495,0.3026 -0.0212,0.0128 -0.0871,0.0472 -0.0658,0.0345 0.12868,-0.0764 0.25869,-0.15057 0.38804,-0.22586 -0.2239,0.14336 -0.14026,0.0914 -0.58158,0.34029 -0.0267,0.015 -0.10868,0.0562 -0.0827,0.0399 0.1229,-0.0769 0.2496,-0.14758 0.37394,-0.22214 0.0199,-0.0119 -0.0403,0.0228 -0.0605,0.0342 -0.16514,0.0968 -0.33028,0.19356 -0.49542,0.29035 -0.11795,0.0423 -0.23192,0.0944 -0.34976,0.13717 0.91073,-0.55547 -0.0295,0.0442 -0.3442,0.14195 0.13529,-0.0799 0.54488,-0.31316 0.40588,-0.23985 -0.16259,0.0857 -0.31659,0.18691 -0.47669,0.27719 -0.46181,0.26044 1.45446,-0.86197 -0.14999,0.0735 -0.10103,0.041 -0.2073,0.0588 -0.30855,0.0985 -0.11473,0.062 -0.23194,0.0971 -0.35803,0.12906 -0.10089,0.0267 -0.20066,0.0294 -0.30478,0.0249 -0.0799,7.9e-4 -0.15989,1.1e-4 -0.23984,5.3e-4 -0.073,-7.9e-4 -0.14608,2.6e-4 -0.21911,5.3e-4 -0.0659,-5.3e-4 -0.13184,0.001 -0.19767,-0.002 -0.0605,-0.004 -0.11807,-0.0146 -0.17453,-0.0379 -0.0599,-0.0349 -0.11833,-0.073 -0.19174,-0.0632 -0.0912,0.004 -0.18216,0.0118 -0.27344,0.0141 -0.10269,-0.007 -0.20362,-0.0303 -0.30771,-0.0185 -0.14625,-10e-4 -0.2925,-1.6e-4 -0.43875,5.3e-4 0,0 0.42251,-0.30697 0.42251,-0.30697 z"
     inkscape:connector-curvature="0" />
  <rect
     style="opacity:1;fill:none;fill-opacity:0.98802394;fill-rule:nonzero;stroke:#000000;stroke-width:1.12509394;stroke-linecap:round;stroke-linejoin:round;stroke-miterlimit:4;stroke-dasharray:none;stroke-opacity:1"
     id="rect958"
     width="17.01362"
     height="5.6182561"
     x="82.135628"
     y="343.79175"
     ry="3.5810895"
     transform="matrix(0.88640376,-0.46291293,0.50175821,0.86500792,0,0)" />
  <path
     style="fill:none;fill-rule:evenodd;stroke:#000000;stroke-width:1.54811752;stroke-linecap:butt;stroke-linejoin:miter;stroke-miterlimit:4;stroke-dasharray:none;stroke-opacity:1"
     d="m 252.86046,255.76733 2.50579,4.31986"
     id="path960"
     inkscape:connector-curvature="0" />
  <path
     style="opacity:1;fill:none;fill-opacity:0.98802394;fill-rule:nonzero;stroke:#000000;stroke-width:2.46927142;stroke-linecap:round;stroke-linejoin:round;stroke-miterlimit:4;stroke-dasharray:none;stroke-opacity:1"
     d="m 249.5122,262.29632 c -2.01167,0.17759 -2.95337,-1.52413 -1.68248,-3.04036 0.4063,-0.48475 1.57514,-1.31816 2.59742,-1.85203 l 1.85869,-0.97068 1.09628,1.88995 1.09627,1.88993 -1.9268,0.99249 c -1.05975,0.54587 -2.42747,1.03668 -3.03938,1.0907 z"
     id="path962"
     inkscape:connector-curvature="0" />
  <path
     style="opacity:1;fill:none;fill-opacity:0.98802394;fill-rule:nonzero;stroke:#000000;stroke-width:2.46927142;stroke-linecap:round;stroke-linejoin:round;stroke-miterlimit:4;stroke-dasharray:none;stroke-opacity:1"
     d="m 250.46584,260.64585 c -2.13453,0.76633 -2.1952,-0.16075 -0.10607,-1.62093 l 1.38493,-0.96797 0.48453,0.83531 c 0.51689,0.8911 0.44791,0.95969 -1.76339,1.75359 z"
     id="path964"
     inkscape:connector-curvature="0" />
  <path
     style="fill:none;fill-rule:evenodd;stroke:#000000;stroke-width:1.51218677;stroke-linecap:butt;stroke-linejoin:miter;stroke-miterlimit:4;stroke-dasharray:none;stroke-opacity:1"
     d="m 246.20744,112.26188 0.54677,13.73939 15.30966,-0.54957"
     id="path966"
     inkscape:connector-curvature="0" />
  <path
     style="fill:none;fill-rule:evenodd;stroke:#000000;stroke-width:0.82020834;stroke-linecap:butt;stroke-linejoin:miter;stroke-opacity:1;stroke-miterlimit:4;stroke-dasharray:none"
     d="m 246.75421,126.00127 3.50041,-6.57116 2.53208,2.95411 2.11008,-4.64217 3.37612,-0.42201 1.26604,-3.79813"
     id="path968"
     inkscape:connector-curvature="0" />
  <path
     style="fill:none;fill-rule:evenodd;stroke:#000000;stroke-width:2.54000002;stroke-linecap:butt;stroke-linejoin:miter;stroke-opacity:1;stroke-miterlimit:4;stroke-dasharray:none"
     d="M 98.329386,259.96095 H 122.38422"
     id="path972"
     inkscape:connector-curvature="0" />
  <path
     style="fill:none;fill-rule:evenodd;stroke:#000000;stroke-width:0.64879233;stroke-linecap:butt;stroke-linejoin:miter;stroke-miterlimit:4;stroke-dasharray:none;stroke-opacity:1"
     d="m 99.208141,259.47805 c 0,0 10.289479,-16.46886 22.636829,0.47053"
     id="path974"
     inkscape:connector-curvature="0" />
  <path
     style="opacity:1;fill:none;fill-opacity:0.98802394;fill-rule:nonzero;stroke:#000000;stroke-width:0.65590209;stroke-linecap:round;stroke-linejoin:round;stroke-miterlimit:4;stroke-dasharray:none;stroke-opacity:1"
     id="path976"
     sodipodi:type="arc"
     sodipodi:cx="110.03844"
     sodipodi:cy="250.34309"
     sodipodi:rx="1.8650583"
     sodipodi:ry="1.7904561"
     sodipodi:start="0"
     sodipodi:end="6.2802532"
     sodipodi:open="true"
     d="m 111.9035,250.34309 a 1.8650583,1.7904561 0 0 1 -1.8637,1.79046 1.8650583,1.7904561 0 0 1 -1.86642,-1.78783 1.8650583,1.7904561 0 0 1 1.86096,-1.79308 1.8650583,1.7904561 0 0 1 1.86915,1.7852" />
</svg>
